<svg xmlns="http://www.w3.org/2000/svg" width="24" height="24" viewBox="0 0 24 24" fill="none" class="css-pfzb3q"><path fill-rule="evenodd" clip-rule="evenodd" d="M12.9921 3.00241C13.2513 3.02832 13.4399 3.24959 13.413 3.49655L12.3817 9.81686H18.5302C18.6992 9.81686 18.856 9.90326 18.9393 10.0434C19.0225 10.1835 19.0202 10.3555 18.9335 10.4936L11.579 21.7905C11.4855 21.931 11.3185 22.0112 11.1444 21.9985C10.8845 21.9796 10.6902 21.7638 10.7098 21.5161L11.5262 15.185H5.4696C5.38283 15.185 5.29744 15.1619 5.22351 15.1186C5.00284 14.9893 4.93376 14.7137 5.06921 14.5034L12.5477 3.20456C12.6444 3.06308 12.8158 2.9849 12.9921 3.00241Z" fill="currentColor"/></svg>